<?xml version="1.0" encoding="utf-8"?>
<!-- Generator: Adobe Illustrator 21.1.0, SVG Export Plug-In . SVG Version: 6.00 Build 0)  -->
<svg version="1.1" id="Слой_1" xmlns="http://www.w3.org/2000/svg" xmlns:xlink="http://www.w3.org/1999/xlink" x="0px" y="0px"
	 viewBox="0 0 29 25.4" style="enable-background:new 0 0 29 25.4;" xml:space="preserve">
<style type="text/css">
	.st0{fill:#6f5f90;}
</style>
<path class="st0" d="M29,20.4V5c0-2.8-2.2-5-5-5H5C2.2,0,0,2.2,0,5v15.4c0,2.8,2.2,5,5,5h19C26.8,25.4,29,23.2,29,20.4z M9.2,15.7
	C9.2,15.7,9.1,15.7,9.2,15.7c-0.3,0.3-0.8,0.3-1.1,0c-0.3-0.3-0.3-0.8,0-1.1L13.6,9c0.3-0.3,0.8-0.3,1.1,0v0c0,0,0,0,0,0l5.5,5.6
	c0.3,0.3,0.3,0.8,0,1.1c0,0,0,0,0,0c-0.3,0.3-0.8,0.3-1.1,0l-5-5L9.2,15.7z"/>
</svg>
