<svg xmlns="http://www.w3.org/2000/svg" width="22" height="27.094" viewBox="0 0 22 27.094">
  <metadata><?xpacket begin="﻿" id="W5M0MpCehiHzreSzNTczkc9d"?>
<x:xmpmeta xmlns:x="adobe:ns:meta/" x:xmptk="Adobe XMP Core 5.6-c138 79.159824, 2016/09/14-01:09:01        ">
   <rdf:RDF xmlns:rdf="http://www.w3.org/1999/02/22-rdf-syntax-ns#">
      <rdf:Description rdf:about=""/>
   </rdf:RDF>
</x:xmpmeta>
                                                                                                    
                                                                                                    
                                                                                                    
                                                                                                    
                                                                                                    
                                                                                                    
                                                                                                    
                                                                                                    
                                                                                                    
                                                                                                    
                                                                                                    
                                                                                                    
                                                                                                    
                                                                                                    
                                                                                                    
                                                                                                    
                                                                                                    
                                                                                                    
                                                                                                    
                                                                                                    
                           
<?xpacket end="w"?></metadata>
<defs>
    <style>
      .cls-1 {
        fill: #ed1e79;
        fill-rule: evenodd;
      }
    </style>
  </defs>
  <path id="comment" class="cls-1" d="M988,849a11,11,0,0,1,11,11c0,3.931-2.9,11.794-11,16-1.773.92,2.144-5,0-5A11,11,0,0,1,988,849Zm-6,9a2,2,0,1,1-2,2A2,2,0,0,1,982,858Zm6,0a2,2,0,1,1-2,2A2,2,0,0,1,988,858Zm6,0a2,2,0,1,1-2,2A2,2,0,0,1,994,858Z" transform="translate(-977 -849)"/>
</svg>
