<svg xmlns="http://www.w3.org/2000/svg" width="334" height="61.844" viewBox="0 0 334 61.844">
  <metadata><?xpacket begin="﻿" id="W5M0MpCehiHzreSzNTczkc9d"?>
<x:xmpmeta xmlns:x="adobe:ns:meta/" x:xmptk="Adobe XMP Core 5.6-c138 79.159824, 2016/09/14-01:09:01        ">
   <rdf:RDF xmlns:rdf="http://www.w3.org/1999/02/22-rdf-syntax-ns#">
      <rdf:Description rdf:about=""/>
   </rdf:RDF>
</x:xmpmeta>
                                                                                                    
                                                                                                    
                                                                                                    
                                                                                                    
                                                                                                    
                                                                                                    
                                                                                                    
                                                                                                    
                                                                                                    
                                                                                                    
                                                                                                    
                                                                                                    
                                                                                                    
                                                                                                    
                                                                                                    
                                                                                                    
                                                                                                    
                                                                                                    
                                                                                                    
                                                                                                    
                           
<?xpacket end="w"?></metadata>
<defs>
    <style>
      .cls-1 {
        fill: #ed1e79;
        fill-rule: evenodd;
      }
    </style>
  </defs>
  <path class="cls-1" d="M407.624,122.448v20.138H401.8V122.448h-6.414v-5.274H414v5.274h-6.377Zm-32.8-5.274h17.628v5.2h-11.8v4.794h10.079v5.2H380.65v5.016h11.8v5.2H374.823V117.174Zm-22.393,0h17.629v5.2h-11.8v4.794h10.078v5.2H358.258v5.016h11.8v5.2H352.43V117.174Zm-9.858,25.412-3.811-9.368h-3.592v9.368h-5.827V117.174H340.7a8.209,8.209,0,0,1,3.555.7,6.862,6.862,0,0,1,2.4,1.845,7.246,7.246,0,0,1,1.356,2.6,10.509,10.509,0,0,1,.422,2.932,7.221,7.221,0,0,1-.293,2.01,8.354,8.354,0,0,1-.825,1.919,8.958,8.958,0,0,1-1.3,1.7,7.934,7.934,0,0,1-1.723,1.346l4.508,10.364h-6.23ZM341.8,123.21a2.92,2.92,0,0,0-2.308-.835h-4.325v5.716h4.325a2.91,2.91,0,0,0,2.327-.835,3.006,3.006,0,0,0,.714-2.023A2.961,2.961,0,0,0,341.8,123.21Zm-22.319,19.376h-5.827V122.448h-6.414v-5.274H325.86v5.274h-6.377v20.138Zm-17.793-1.734a9.933,9.933,0,0,1-3.225,1.439,15.538,15.538,0,0,1-3.9.48,23.978,23.978,0,0,1-2.694-.148,12.99,12.99,0,0,1-2.51-.535,12.52,12.52,0,0,1-2.4-1.069,14.5,14.5,0,0,1-2.364-1.716l3.262-4.315a11.865,11.865,0,0,0,3.243,1.9,9.337,9.337,0,0,0,3.28.608,7.737,7.737,0,0,0,2.016-.221,4.181,4.181,0,0,0,1.3-.571,2.114,2.114,0,0,0,.7-0.757,1.74,1.74,0,0,0-.074-1.752,2.6,2.6,0,0,0-.934-0.793,10.913,10.913,0,0,0-1.741-.737q-1.081-.369-2.694-0.812a21.219,21.219,0,0,1-3.115-1.088,8.36,8.36,0,0,1-2.291-1.475,5.61,5.61,0,0,1-1.41-2.047,7.574,7.574,0,0,1-.477-2.84,6.994,6.994,0,0,1,.678-3.117,6.834,6.834,0,0,1,1.906-2.36,8.7,8.7,0,0,1,2.932-1.493,12.753,12.753,0,0,1,3.72-.517,23.249,23.249,0,0,1,4.342.406,12.133,12.133,0,0,1,4.453,1.955l-2.6,4.72a9.872,9.872,0,0,0-3.28-1.438,15.256,15.256,0,0,0-2.987-.3,4.776,4.776,0,0,0-2.254.461,1.6,1.6,0,0,0-.861,1.531,1.461,1.461,0,0,0,.275.866,2.788,2.788,0,0,0,.935.756,9.846,9.846,0,0,0,1.722.72q1.062,0.35,2.6.793a17.314,17.314,0,0,1,3.885,1.493,7.8,7.8,0,0,1,2.254,1.807,5.166,5.166,0,0,1,1.044,2.1,10.5,10.5,0,0,1,.257,2.341,6.65,6.65,0,0,1-.806,3.338A7.214,7.214,0,0,1,301.69,140.852Zm-33.772-11.285H280.6V134.4H267.918v-4.832Zm-9.382,13.019-3.811-9.368h-3.592v9.368h-5.827V117.174h11.361a8.206,8.206,0,0,1,3.555.7,6.853,6.853,0,0,1,2.4,1.845,7.233,7.233,0,0,1,1.357,2.6,10.545,10.545,0,0,1,.421,2.932,7.221,7.221,0,0,1-.293,2.01,8.354,8.354,0,0,1-.825,1.919,8.958,8.958,0,0,1-1.3,1.7,7.952,7.952,0,0,1-1.722,1.346l4.507,10.364h-6.23Zm-0.77-19.376a2.919,2.919,0,0,0-2.308-.835h-4.325v5.716h4.325a2.91,2.91,0,0,0,2.327-.835,3.006,3.006,0,0,0,.714-2.023A2.961,2.961,0,0,0,257.766,123.21Zm-23.675,14.36h-8.136l-1.5,5.016h-6.268l8.906-25.412H233.1l8.759,25.412h-6.23Zm-1.979-6.528-2.016-7.008H229.95l-2.016,7.008-0.513,1.734h5.2ZM213.66,140.41a6.348,6.348,0,0,1-2.309,1.6,8.209,8.209,0,0,1-3.17.572H195.9V117.174h11.8a8.884,8.884,0,0,1,3.372.572,6.432,6.432,0,0,1,2.29,1.531,5.8,5.8,0,0,1,1.3,2.212,8.622,8.622,0,0,1,.4,2.656,5.327,5.327,0,0,1-.2,1.4,6.645,6.645,0,0,1-.586,1.439,5.721,5.721,0,0,1-.972,1.29,4.811,4.811,0,0,1-1.356.96,5.765,5.765,0,0,1,1.595,1.125,6.718,6.718,0,0,1,1.117,1.475,7.01,7.01,0,0,1,.66,1.623,5.986,5.986,0,0,1,.22,1.53,9.184,9.184,0,0,1-.476,3.006A6.912,6.912,0,0,1,213.66,140.41Zm-5.26-17.353a3.008,3.008,0,0,0-2.272-.682h-4.4v4.61h4.4a3.285,3.285,0,0,0,2.217-.608,2.011,2.011,0,0,0,.678-1.568A2.5,2.5,0,0,0,208.4,123.057Zm0.2,9.719a2.736,2.736,0,0,0-2.217-.812H201.73v5.422h4.655a2.964,2.964,0,0,0,2.162-.72,2.538,2.538,0,0,0,.733-1.9A3,3,0,0,0,208.6,132.776ZM176.379,111.6a10.606,10.606,0,0,0,.26,10.972s-4.525-1.678-10.388,2.909c-3.891,3.051-5.969,11.938-5.969,11.938s-6.728-1.6-10.125-.13a36.219,36.219,0,0,0-14.218,10.727c0.062,4.971.356,10.013,0.754,10.65,1.524,2.422,4.021,2.521,5.547,2.906s2.795,0.536,2.1,1.294c-1.032,1.125-9.025,1.024-9.279,1.021s-8.248.1-9.283-1.021c-0.7-.758.579-0.912,2.1-1.294s4.022-.484,5.548-2.906c0.4-.637.69-5.679,0.756-10.65a36.245,36.245,0,0,0-14.221-10.727c-3.4-1.467-10.122.13-10.122,0.13s-2.079-8.887-5.972-11.938c-5.86-4.587-10.386-2.909-10.386-2.909a10.6,10.6,0,0,0,.26-10.972c-4.312-8.332-13.726-8.237-13.726-8.237s13.053-3.5,23.851.793c9.194,3.653,16.176,15.762,16.895,16.711L121,121.191c0.017,0,.021-0.011.04-0.014a136.524,136.524,0,0,1,13.971-.66s12.389,0.423,14.054.66c0.02,0,.025.012,0.041,0.014l0.249-.324c0.72-.949,7.7-13.058,16.893-16.711,10.8-4.293,23.853-.793,23.853-0.793S180.689,103.268,176.379,111.6Zm-46.522,24.419a34.73,34.73,0,0,0-6.4-5.971s4.1,4.851,5.753,6.581c1.45,1.523,4.974,8.24,4.974,8.185A30.4,30.4,0,0,0,129.857,136.019Zm11.074-.871a30.3,30.3,0,0,0-4.33,8.8c0,0.055,3.531-6.666,4.98-8.186,1.649-1.736,5.751-6.581,5.751-6.581A34.549,34.549,0,0,0,140.931,135.148Z" transform="translate(-80 -102.031)"/>
</svg>
