<?xml version="1.0" encoding="utf-8"?><svg width="64" height="73" viewBox="0 0 64 73" xmlns="http://www.w3.org/2000/svg" xmlns:xlink="http://www.w3.org/1999/xlink"><svg width="32" height="37.09" viewBox="-5 -5 32 37.09" id="comment"><defs><style>.acls-1{fill:#ed1e79;fill-rule:evenodd}</style></defs><path id="acomment" class="acls-1" d="M988 849a11 11 0 0 1 11 11c0 3.931-2.9 11.794-11 16-1.773.92 2.144-5 0-5a11 11 0 0 1 0-22zm-6 9a2 2 0 1 1-2 2 2 2 0 0 1 2-2zm6 0a2 2 0 1 1-2 2 2 2 0 0 1 2-2zm6 0a2 2 0 1 1-2 2 2 2 0 0 1 2-2z" transform="translate(-977 -849)"/></svg><svg width="32" height="35" viewBox="-5 -5 32 35" id="exel" x="32" y="38"><defs><style>.bcls-1{fill:#ed1e79;fill-rule:evenodd}</style></defs><path id="bexel" class="bcls-1" d="M993.5 769.167h5.5v16.666h-5.5v-16.666zM977 785.833L992.4 790v-25l-15.4 4.167v16.666zm3.85-13.889h2.45l1.375 3.084 1.43-3.084h2.395l-2.5 4.417 2.751 5.194H986.3l-1.622-3.666-1.6 3.666h-2.392l2.668-5.111z" transform="translate(-977 -765)"/></svg></svg>