<?xml version="1.0" encoding="utf-8"?><svg width="136" height="151" viewBox="0 0 136 151" xmlns="http://www.w3.org/2000/svg" xmlns:xlink="http://www.w3.org/1999/xlink"><svg width="35.44" height="39" viewBox="-5 -5 35.44 39" id="arrow-leftpink"><defs><style>.acls-1{fill:#ed1e79;fill-rule:evenodd}</style></defs><path id="aRounded_Rectangle_2_copy" data-name="Rounded Rectangle 2 copy" class="acls-1" d="M1075.54 2022.84l-5.58 5.5a.785.785 0 0 0 1.12 1.1l5.58-5.5a.767.767 0 0 0 0-1.1.809.809 0 0 0-1.12 0zm-5.58 5.5a.785.785 0 0 0 0 1.1l5.58 5.5a.809.809 0 0 0 1.12 0 .767.767 0 0 0 0-1.1l-5.58-5.5a.809.809 0 0 0-1.12 0zM1066 2014h15.44a5 5 0 0 1 5 5v19a5 5 0 0 1-5 5H1066a5 5 0 0 1-5-5v-19a5 5 0 0 1 5-5z" transform="translate(-1061 -2014)"/></svg><svg id="arrow-rightpink" data-name="Слой 1" viewBox="-5 -5 35.44 39" width="35.44" height="39" x="36" y="39"><defs><style>.bcls-1{fill:#ed1e79}.bcls-2{fill:#fff}</style></defs><title>arrow-rightpink</title><rect class="bcls-1" width="25.44" height="29" rx="5" ry="5"/><path class="bcls-2" d="M16.48 14.66a.79.79 0 0 0 0-1.1l-5.58-5.5a.81.81 0 0 0-1.12 0 .77.77 0 0 0 0 1.08l5 5-5 5a.77.77 0 0 0 0 1.08.81.81 0 0 0 1.12 0l5.58-5.5z"/></svg><svg id="comment" data-name="Слой 1" viewBox="-5 -5 32 37.1" width="32" height="37.1" x="72" y="78"><defs><style>.ccls-1{fill:#ed1e79}</style></defs><title>comment</title><path class="ccls-1" d="M11 0a11 11 0 1 0 0 22c2.14 0-1.77 5.92 0 5 8.1-4.21 11-12.07 11-16A11 11 0 0 0 11 0zM5 13a2 2 0 1 1 2-2 2 2 0 0 1-2 2zm6 0a2 2 0 1 1 2-2 2 2 0 0 1-2 2zm6 0a2 2 0 1 1 2-2 2 2 0 0 1-2 2z"/></svg><svg id="exel" data-name="Слой 1" viewBox="-5 -5 32 35" width="32" height="35" x="104" y="116"><defs><style>.dcls-1{fill:#ed1e79}</style></defs><title>exel</title><path id="dexel" class="dcls-1" d="M16.5 4.17H22v16.66h-5.5zM0 20.83L15.4 25V0L0 4.17zM3.85 6.94H6.3L7.67 10 9.1 6.94h2.4L9 11.36l2.75 5.19H9.3l-1.62-3.66-1.6 3.67H3.69l2.67-5.11z"/></svg></svg>