<?xml version="1.0" encoding="utf-8"?><svg width="428" height="446" viewBox="0 0 428 446" xmlns="http://www.w3.org/2000/svg" xmlns:xlink="http://www.w3.org/1999/xlink"><svg id="arrow-down" data-name="Слой 1" viewBox="-5 -5 39 35.44" width="39" height="35.44"><defs><style>.acls-1{fill:#ed1e79}</style></defs><title>arrow-down</title><path class="acls-1" d="M0 5v15.44a5 5 0 0 0 5 5h19a5 5 0 0 0 5-5V5a5 5 0 0 0-5-5H5a5 5 0 0 0-5 5zm19.84 4.78a.77.77 0 0 1 1.08 0 .81.81 0 0 1 0 1.12l-5.5 5.58a.79.79 0 0 1-1.1 0L8.84 10.9a.81.81 0 0 1 0-1.12.77.77 0 0 1 1.08 0l5 5z"/></svg><svg id="arrow-down_" data-name="Слой 1" viewBox="-5 -5 39 35.44" width="39" height="35.44" x="39" y="36"><defs><style>.bcls-1{fill:#6f5f90}</style></defs><title>arrow-down</title><path class="bcls-1" d="M0 5v15.44a5 5 0 0 0 5 5h19a5 5 0 0 0 5-5V5a5 5 0 0 0-5-5H5a5 5 0 0 0-5 5zm19.84 4.78a.77.77 0 0 1 1.08 0 .81.81 0 0 1 0 1.12l-5.5 5.58a.79.79 0 0 1-1.1 0L8.84 10.9a.81.81 0 0 1 0-1.12.77.77 0 0 1 1.08 0l5 5z"/></svg><svg width="35.44" height="39" viewBox="-5 -5 35.44 39" id="arrow-leftpink" x="78" y="72"><defs><style>.ccls-1{fill:#ed1e79;fill-rule:evenodd}</style></defs><path id="cRounded_Rectangle_2_copy" data-name="Rounded Rectangle 2 copy" class="ccls-1" d="M1075.54 2022.84l-5.58 5.5a.785.785 0 0 0 1.12 1.1l5.58-5.5a.767.767 0 0 0 0-1.1.809.809 0 0 0-1.12 0zm-5.58 5.5a.785.785 0 0 0 0 1.1l5.58 5.5a.809.809 0 0 0 1.12 0 .767.767 0 0 0 0-1.1l-5.58-5.5a.809.809 0 0 0-1.12 0zM1066 2014h15.44a5 5 0 0 1 5 5v19a5 5 0 0 1-5 5H1066a5 5 0 0 1-5-5v-19a5 5 0 0 1 5-5z" transform="translate(-1061 -2014)"/></svg><svg width="35.44" height="39" viewBox="-5 -5 35.44 39" id="arrow-leftpink_" x="114" y="111"><defs><style>.dcls-1{fill:#6f5f90;fill-rule:evenodd}</style></defs><path id="dRounded_Rectangle_2_copy" data-name="Rounded Rectangle 2 copy" class="dcls-1" d="M1075.54 2022.84l-5.58 5.5a.785.785 0 0 0 1.12 1.1l5.58-5.5a.767.767 0 0 0 0-1.1.809.809 0 0 0-1.12 0zm-5.58 5.5a.785.785 0 0 0 0 1.1l5.58 5.5a.809.809 0 0 0 1.12 0 .767.767 0 0 0 0-1.1l-5.58-5.5a.809.809 0 0 0-1.12 0zM1066 2014h15.44a5 5 0 0 1 5 5v19a5 5 0 0 1-5 5H1066a5 5 0 0 1-5-5v-19a5 5 0 0 1 5-5z" transform="translate(-1061 -2014)"/></svg><svg id="arrow-rightpink" data-name="Слой 1" viewBox="-5 -5 35.44 39" width="35.44" height="39" x="150" y="150"><defs><style>.ecls-1{fill:#ed1e79}.ecls-2{fill:#fff}</style></defs><title>arrow-rightpink</title><rect class="ecls-1" width="25.44" height="29" rx="5" ry="5"/><path class="ecls-2" d="M16.48 14.66a.79.79 0 0 0 0-1.1l-5.58-5.5a.81.81 0 0 0-1.12 0 .77.77 0 0 0 0 1.08l5 5-5 5a.77.77 0 0 0 0 1.08.81.81 0 0 0 1.12 0l5.58-5.5z"/></svg><svg id="arrow-rightpink_" data-name="Слой 1" viewBox="-5 -5 35.44 39" width="35.44" height="39" x="186" y="189"><defs><style>.fcls-1{fill:#6f5f90}.fcls-2{fill:#fff}</style></defs><title>arrow-rightpink</title><rect class="fcls-1" width="25.44" height="29" rx="5" ry="5"/><path class="fcls-2" d="M16.48 14.66a.79.79 0 0 0 0-1.1l-5.58-5.5a.81.81 0 0 0-1.12 0 .77.77 0 0 0 0 1.08l5 5-5 5a.77.77 0 0 0 0 1.08.81.81 0 0 0 1.12 0l5.58-5.5z"/></svg><svg id="arrow-up" viewBox="-5 -5 39 35.4" width="39" height="35.4" x="222" y="228"><style>.gst0{fill:#ed1e79}</style><path class="gst0" d="M29 20.4V5c0-2.8-2.2-5-5-5H5C2.2 0 0 2.2 0 5v15.4c0 2.8 2.2 5 5 5h19c2.8 0 5-2.2 5-5zM9.2 15.7s-.1 0 0 0c-.3.3-.8.3-1.1 0-.3-.3-.3-.8 0-1.1L13.6 9c.3-.3.8-.3 1.1 0l5.5 5.6c.3.3.3.8 0 1.1-.3.3-.8.3-1.1 0l-5-5-4.9 5z"/></svg><svg id="arrow-up_" viewBox="-5 -5 39 35.4" width="39" height="35.4" x="261" y="264"><style>.hst0{fill:#6f5f90}</style><path class="hst0" d="M29 20.4V5c0-2.8-2.2-5-5-5H5C2.2 0 0 2.2 0 5v15.4c0 2.8 2.2 5 5 5h19c2.8 0 5-2.2 5-5zM9.2 15.7s-.1 0 0 0c-.3.3-.8.3-1.1 0-.3-.3-.3-.8 0-1.1L13.6 9c.3-.3.8-.3 1.1 0l5.5 5.6c.3.3.3.8 0 1.1-.3.3-.8.3-1.1 0l-5-5-4.9 5z"/></svg><svg id="comment" data-name="Слой 1" viewBox="-5 -5 32 37.1" width="32" height="37.1" x="300" y="300"><defs><style>.icls-1{fill:#ed1e79}</style></defs><title>comment</title><path class="icls-1" d="M11 0a11 11 0 1 0 0 22c2.14 0-1.77 5.92 0 5 8.1-4.21 11-12.07 11-16A11 11 0 0 0 11 0zM5 13a2 2 0 1 1 2-2 2 2 0 0 1-2 2zm6 0a2 2 0 1 1 2-2 2 2 0 0 1-2 2zm6 0a2 2 0 1 1 2-2 2 2 0 0 1-2 2z"/></svg><svg id="comment_" data-name="Слой 1" viewBox="-5 -5 32 37.1" width="32" height="37.1" x="332" y="338"><defs><style>.jcls-1{fill:#6f5f90}</style></defs><title>comment</title><path class="jcls-1" d="M11 0a11 11 0 1 0 0 22c2.14 0-1.77 5.92 0 5 8.1-4.21 11-12.07 11-16A11 11 0 0 0 11 0zM5 13a2 2 0 1 1 2-2 2 2 0 0 1-2 2zm6 0a2 2 0 1 1 2-2 2 2 0 0 1-2 2zm6 0a2 2 0 1 1 2-2 2 2 0 0 1-2 2z"/></svg><svg id="exel" data-name="Слой 1" viewBox="-5 -5 32 35" width="32" height="35" x="364" y="376"><defs><style>.kcls-1{fill:#ed1e79}</style></defs><title>exel</title><path id="kexel" class="kcls-1" d="M16.5 4.17H22v16.66h-5.5zM0 20.83L15.4 25V0L0 4.17zM3.85 6.94H6.3L7.67 10 9.1 6.94h2.4L9 11.36l2.75 5.19H9.3l-1.62-3.66-1.6 3.67H3.69l2.67-5.11z"/></svg><svg id="exel_" data-name="Слой 1" viewBox="-5 -5 32 35" width="32" height="35" x="396" y="411"><defs><style>.lcls-1{fill:#6f5f90}</style></defs><title>exel</title><path id="lexel" class="lcls-1" d="M16.5 4.17H22v16.66h-5.5zM0 20.83L15.4 25V0L0 4.17zM3.85 6.94H6.3L7.67 10 9.1 6.94h2.4L9 11.36l2.75 5.19H9.3l-1.62-3.66-1.6 3.67H3.69l2.67-5.11z"/></svg></svg>