<svg xmlns="http://www.w3.org/2000/svg" width="25.44" height="29" viewBox="0 0 25.44 29">
  <metadata><?xpacket begin="﻿" id="W5M0MpCehiHzreSzNTczkc9d"?>
<x:xmpmeta xmlns:x="adobe:ns:meta/" x:xmptk="Adobe XMP Core 5.6-c138 79.159824, 2016/09/14-01:09:01        ">
   <rdf:RDF xmlns:rdf="http://www.w3.org/1999/02/22-rdf-syntax-ns#">
      <rdf:Description rdf:about=""/>
   </rdf:RDF>
</x:xmpmeta>              
<?xpacket end="w"?></metadata>
<defs>
    <style>
      .cls-1 {
        fill: #6f5f90;
        fill-rule: evenodd;
      }
    </style>
  </defs>
  <path id="Rounded_Rectangle_2_copy" data-name="Rounded Rectangle 2 copy" class="cls-1" d="M1075.54,2022.84l-5.58,5.5a0.785,0.785,0,0,0,1.12,1.1l5.58-5.5a0.767,0.767,0,0,0,0-1.1A0.809,0.809,0,0,0,1075.54,2022.84Zm-5.58,5.5a0.785,0.785,0,0,0,0,1.1l5.58,5.5a0.809,0.809,0,0,0,1.12,0,0.767,0.767,0,0,0,0-1.1l-5.58-5.5A0.809,0.809,0,0,0,1069.96,2028.34ZM1066,2014h15.44a5,5,0,0,1,5,5v19a5,5,0,0,1-5,5H1066a5,5,0,0,1-5-5v-19A5,5,0,0,1,1066,2014Z" transform="translate(-1061 -2014)"/>
</svg>
